<svg width="18" height="19" viewBox="0 0 18 19" fill="none" xmlns="http://www.w3.org/2000/svg">
<path d="M18 7.70663C17.9911 7.91862 17.879 8.16072 17.6616 8.35191C16.791 9.11668 15.9199 9.88074 15.0484 10.6441C14.6415 11.0011 14.234 11.3576 13.826 11.7136C13.7677 11.7642 13.7528 11.8092 13.7708 11.8878C14.084 13.2566 14.3947 14.6259 14.7028 15.9958C14.7652 16.2712 14.8266 16.547 14.894 16.8213C14.9923 17.2276 14.8668 17.6291 14.5501 17.8564C14.2017 18.1064 13.8317 18.1226 13.4634 17.9042C12.2903 17.2068 11.1187 16.5066 9.94856 15.8037C9.67539 15.6405 9.39888 15.481 9.13025 15.3118C9.04039 15.2552 8.97514 15.2547 8.88289 15.3102C7.45993 16.1643 6.03387 17.0132 4.61258 17.8671C4.31073 18.0483 4.00243 18.1164 3.6688 17.9795C3.22738 17.7983 2.99675 17.3342 3.10645 16.8519C3.41666 15.4868 3.72735 14.1217 4.03852 12.7565C4.104 12.4697 4.16256 12.1808 4.23354 11.8962C4.25409 11.814 4.23975 11.7654 4.17737 11.7112C3.64267 11.2461 3.10932 10.7794 2.57732 10.3112C1.8319 9.65681 1.08362 9.00699 0.342505 8.34785C0.0399405 8.07922 -0.0747758 7.73627 0.0492612 7.34408C0.173298 6.95189 0.450529 6.71577 0.863986 6.67323C1.59674 6.59818 2.33068 6.53533 3.06415 6.46817C3.78973 6.40173 4.51531 6.33577 5.24089 6.27029C5.48275 6.24854 5.72461 6.22416 5.96671 6.20576C6.04462 6.20002 6.08621 6.16585 6.11536 6.09487C6.77259 4.5505 7.43094 3.00677 8.09039 1.46367C8.27251 1.03707 8.59778 0.798798 9.01123 0.809553C9.42469 0.820308 9.72295 1.02226 9.8869 1.40201C10.3331 2.43518 10.7736 3.47073 11.2159 4.50581C11.4411 5.03159 11.6667 5.55881 11.888 6.08698C11.9219 6.16824 11.9704 6.19978 12.0553 6.20648C12.6384 6.25587 13.2214 6.30765 13.8042 6.36182C14.6528 6.43894 15.5013 6.51669 16.3497 6.59508C16.6193 6.61898 16.8891 6.64288 17.158 6.67299C17.647 6.73082 18.0038 7.13878 18 7.70663Z" fill="#FFE55B"/>
</svg>
